<?xml version="1.0" encoding="UTF-8"?>
<svg xmlns="http://www.w3.org/2000/svg" xmlns:xlink="http://www.w3.org/1999/xlink" width="24px" height="24px" viewBox="0 0 24 24" version="1.1">
<g id="surface1">
<path style=" stroke:none;fill-rule:nonzero;fill:rgb(28.235294%,60.784314%,42.745098%);fill-opacity:1;" d="M 12 0.320312 C 6.125 0.320312 1.332031 5.097656 1.332031 10.976562 L 1.332031 22.886719 C 1.332031 23.3125 1.683594 23.667969 2.109375 23.667969 C 2.53125 23.667969 2.882812 23.320312 2.882812 22.910156 L 21.117188 22.910156 C 21.117188 23.320312 21.46875 23.667969 21.890625 23.667969 C 22.316406 23.667969 22.667969 23.3125 22.667969 22.886719 L 22.667969 10.976562 C 22.667969 5.097656 17.875 0.320312 12 0.320312 Z M 12 0.320312 "/>
<path style=" stroke:none;fill-rule:nonzero;fill:rgb(63.529412%,80.784314%,52.54902%);fill-opacity:1;" d="M 12 0.320312 C 6.125 0.320312 1.332031 5.097656 1.332031 10.976562 L 1.332031 22.886719 C 1.332031 23.3125 1.683594 23.667969 2.109375 23.667969 C 2.53125 23.667969 2.882812 23.320312 2.882812 22.910156 L 12 22.910156 Z M 12 0.320312 "/>
<path style=" stroke:none;fill-rule:nonzero;fill:rgb(16.470588%,33.72549%,21.568627%);fill-opacity:1;" d="M 14.550781 5.269531 L 9.449219 5.269531 C 9.023438 5.269531 8.679688 5.613281 8.679688 6.039062 C 8.679688 6.464844 9.023438 6.808594 9.449219 6.808594 L 14.550781 6.808594 C 14.976562 6.808594 15.320312 6.464844 15.320312 6.039062 C 15.320312 5.613281 14.976562 5.269531 14.550781 5.269531 Z M 14.550781 5.269531 "/>
<path style=" stroke:none;fill-rule:nonzero;fill:rgb(30.588235%,49.803922%,29.411765%);fill-opacity:1;" d="M 12 5.269531 L 9.449219 5.269531 C 9.023438 5.269531 8.679688 5.613281 8.679688 6.039062 C 8.679688 6.464844 9.023438 6.808594 9.449219 6.808594 L 12 6.808594 Z M 12 5.269531 "/>
<path style=" stroke:none;fill-rule:nonzero;fill:rgb(0%,47.058824%,44.313725%);fill-opacity:1;" d="M 12 8.191406 C 10.804688 8.191406 9.828125 7.214844 9.828125 6.019531 C 9.828125 4.824219 10.804688 3.847656 12 3.847656 C 13.195312 3.847656 14.171875 4.824219 14.171875 6.019531 C 14.171875 7.214844 13.195312 8.191406 12 8.191406 Z M 12 8.191406 "/>
<path style=" stroke:none;fill-rule:nonzero;fill:rgb(28.235294%,60.784314%,42.745098%);fill-opacity:1;" d="M 12 8.191406 C 10.804688 8.191406 9.828125 7.214844 9.828125 6.019531 C 9.828125 4.824219 10.804688 3.847656 12 3.847656 Z M 12 8.191406 "/>
<path style=" stroke:none;fill-rule:nonzero;fill:rgb(0%,47.058824%,44.313725%);fill-opacity:1;" d="M 24 19.9375 C 24 19.511719 23.65625 19.167969 23.230469 19.167969 L 0.769531 19.167969 C 0.34375 19.167969 0 19.511719 0 19.9375 L 0 22.910156 C 0 23.335938 0.34375 23.679688 0.769531 23.679688 L 23.230469 23.679688 C 23.65625 23.679688 24 23.335938 24 22.910156 Z M 24 19.9375 "/>
<path style=" stroke:none;fill-rule:nonzero;fill:rgb(28.235294%,60.784314%,42.745098%);fill-opacity:1;" d="M 12 19.167969 L 0.769531 19.167969 C 0.34375 19.167969 0 19.511719 0 19.9375 L 0 22.910156 C 0 23.335938 0.34375 23.679688 0.769531 23.679688 L 12.027344 23.679688 Z M 12 19.167969 "/>
<path style=" stroke:none;fill-rule:nonzero;fill:rgb(16.470588%,33.72549%,21.568627%);fill-opacity:1;" d="M 12.664062 6.019531 C 12.664062 6.386719 12.367188 6.683594 12 6.683594 C 11.632812 6.683594 11.335938 6.386719 11.335938 6.019531 C 11.335938 5.652344 11.632812 5.355469 12 5.355469 C 12.367188 5.355469 12.664062 5.652344 12.664062 6.019531 Z M 12.664062 6.019531 "/>
</g>
</svg>
