<?xml version="1.0" encoding="UTF-8"?>
<svg xmlns="http://www.w3.org/2000/svg" xmlns:xlink="http://www.w3.org/1999/xlink" width="24px" height="24px" viewBox="0 0 24 24" version="1.1">
<defs>
<filter id="alpha" filterUnits="objectBoundingBox" x="0%" y="0%" width="100%" height="100%">
  <feColorMatrix type="matrix" in="SourceGraphic" values="0 0 0 0 1 0 0 0 0 1 0 0 0 0 1 0 0 0 1 0"/>
</filter>
<mask id="mask0">
  <g filter="url(#alpha)">
<rect x="0" y="0" width="24" height="24" style="fill:rgb(0%,0%,0%);fill-opacity:0.2;stroke:none;"/>
  </g>
</mask>
<clipPath id="clip1">
  <rect x="0" y="0" width="24" height="24"/>
</clipPath>
<g id="surface5" clip-path="url(#clip1)">
<path style=" stroke:none;fill-rule:nonzero;fill:rgb(100%,100%,100%);fill-opacity:1;" d="M 5.785156 21.1875 C 5.253906 19.863281 5.25 18.554688 5.25 18.5 L 5.25 10.117188 L 3.304688 6.222656 C 3.269531 6.152344 3.25 6.078125 3.25 6 L 3.25 2 C 3.25 1.722656 3.472656 1.5 3.75 1.5 L 2.75 1.5 C 2.472656 1.5 2.25 1.722656 2.25 2 L 2.25 6 C 2.25 6.078125 2.269531 6.152344 2.300781 6.222656 L 4.25 10.117188 L 4.25 18.5 C 4.25 18.554688 4.257812 19.863281 4.785156 21.1875 C 5.523438 23.027344 6.894531 24 8.75 24 L 9.75 24 C 7.894531 24 6.523438 23.027344 5.785156 21.1875 Z M 5.785156 21.1875 "/>
</g>
</defs>
<g id="surface1">
<path style=" stroke:none;fill-rule:nonzero;fill:rgb(26.27451%,29.019608%,32.941176%);fill-opacity:1;" d="M 21.25 4.5 C 21.066406 4.5 20.890625 4.398438 20.804688 4.222656 L 19.941406 2.5 L 17.25 2.5 C 16.972656 2.5 16.75 2.277344 16.75 2 C 16.75 1.722656 16.972656 1.5 17.25 1.5 L 20.25 1.5 C 20.441406 1.5 20.613281 1.605469 20.699219 1.777344 L 21.695312 3.777344 C 21.820312 4.023438 21.71875 4.324219 21.472656 4.445312 C 21.402344 4.484375 21.324219 4.5 21.25 4.5 Z M 21.25 4.5 "/>
<path style=" stroke:none;fill-rule:nonzero;fill:rgb(26.27451%,29.019608%,32.941176%);fill-opacity:1;" d="M 12.25 0 L 8.25 0 C 7.972656 0 7.75 0.222656 7.75 0.5 L 7.75 2 C 7.75 2.277344 7.972656 2.5 8.25 2.5 L 12.25 2.5 C 12.527344 2.5 12.75 2.277344 12.75 2 L 12.75 0.5 C 12.75 0.222656 12.527344 0 12.25 0 Z M 12.25 0 "/>
<path style=" stroke:none;fill-rule:nonzero;fill:rgb(84.705882%,85.882353%,0%);fill-opacity:1;" d="M 17.75 3.5 L 2.75 3.5 C 2.472656 3.5 2.25 3.722656 2.25 4 L 2.25 6 C 2.25 6.078125 2.269531 6.152344 2.300781 6.222656 L 4.25 10.117188 L 4.25 18.5 C 4.25 18.554688 4.257812 19.863281 4.785156 21.1875 C 5.523438 23.027344 6.894531 24 8.75 24 L 17.75 24 C 18.027344 24 18.25 23.777344 18.25 23.5 L 18.25 4 C 18.25 3.722656 18.027344 3.5 17.75 3.5 Z M 17.75 3.5 "/>
<path style=" stroke:none;fill-rule:nonzero;fill:rgb(39.607843%,42.745098%,47.058824%);fill-opacity:1;" d="M 15.25 21 C 15.25 19.621094 16.371094 18.5 17.75 18.5 C 19.128906 18.5 20.25 19.621094 20.25 21 C 20.25 22.378906 19.128906 23.5 17.75 23.5 C 16.371094 23.5 15.25 22.378906 15.25 21 Z M 15.25 21 "/>
<path style=" stroke:none;fill-rule:nonzero;fill:rgb(26.27451%,29.019608%,32.941176%);fill-opacity:1;" d="M 17.75 24 C 16.09375 24 14.75 22.65625 14.75 21 C 14.75 19.34375 16.09375 18 17.75 18 C 19.402344 18 20.75 19.34375 20.75 21 C 20.75 22.65625 19.402344 24 17.75 24 Z M 17.75 19 C 16.648438 19 15.75 19.898438 15.75 21 C 15.75 22.101562 16.648438 23 17.75 23 C 18.851562 23 19.75 22.101562 19.75 21 C 19.75 19.898438 18.851562 19 17.75 19 Z M 17.75 19 "/>
<path style=" stroke:none;fill-rule:nonzero;fill:rgb(84.705882%,85.882353%,0%);fill-opacity:1;" d="M 17.75 1.5 L 2.75 1.5 C 2.472656 1.5 2.25 1.722656 2.25 2 L 2.25 4 C 2.25 4.277344 2.472656 4.5 2.75 4.5 L 17.75 4.5 C 18.027344 4.5 18.25 4.277344 18.25 4 L 18.25 2 C 18.25 1.722656 18.027344 1.5 17.75 1.5 Z M 17.75 1.5 "/>
<use xlink:href="#surface5" mask="url(#mask0)"/>
<path style=" stroke:none;fill-rule:nonzero;fill:rgb(66.666667%,69.803922%,73.72549%);fill-opacity:1;" d="M 18.105469 20.644531 C 18.296875 20.839844 18.296875 21.15625 18.105469 21.355469 C 17.910156 21.546875 17.59375 21.546875 17.394531 21.355469 C 17.199219 21.15625 17.199219 20.839844 17.394531 20.644531 C 17.59375 20.453125 17.910156 20.453125 18.105469 20.644531 Z M 18.105469 20.644531 "/>
</g>
</svg>
