<svg xmlns="http://www.w3.org/2000/svg" xmlns:xlink="http://www.w3.org/1999/xlink" version="1.1" width="1000" height="1000" viewBox="0 0 1000 1000" xml:space="preserve">
<desc>Created with Fabric.js 3.5.0</desc>
<defs>
</defs>
<rect x="0" y="0" width="100%" height="100%" fill="rgba(255,255,255,0)"/>
<g transform="matrix(0.0308 0 0 0.03 499.9966 488.4161)" id="593809">
<g style="" vector-effect="non-scaling-stroke">
		<g transform="matrix(1.5626 0 0 1.5626 241.6641 -299.9988)" id="SVGRepo_iconCarrier">
<path style="stroke: none; stroke-width: 1; stroke-dasharray: none; stroke-linecap: butt; stroke-dashoffset: 0; stroke-linejoin: miter; stroke-miterlimit: 4; is-custom-font: none; font-file-url: none; fill: rgb(67,74,84); fill-rule: nonzero; opacity: 1;" transform=" translate(-410.6483, -63.9975)" d="M 453.323 95.996 c -3.906 0 -7.672 -2.156 -9.547 -5.89 l -18.389 -36.78 h -57.405 c -5.891 0 -10.671 -4.766 -10.671 -10.656 s 4.78 -10.671 10.671 -10.671 h 63.997 c 4.047 0 7.734 2.281 9.547 5.89 l 21.328 42.67 c 2.641 5.266 0.5 11.672 -4.766 14.312 C 456.557 95.636 454.932 95.996 453.323 95.996 z" stroke-linecap="round"/>
</g>
		<g transform="matrix(1.5626 0 0 1.5626 -58.3382 -358.3364)" id="SVGRepo_iconCarrier">
<path style="stroke: none; stroke-width: 1; stroke-dasharray: none; stroke-linecap: butt; stroke-dashoffset: 0; stroke-linejoin: miter; stroke-miterlimit: 4; is-custom-font: none; font-file-url: none; fill: rgb(67,74,84); fill-rule: nonzero; opacity: 1;" transform=" translate(-218.654, -26.663)" d="M 261.315 0 h -85.324 C 170.1 0 165.32 4.78 165.32 10.671 V 42.67 c 0 5.891 4.781 10.656 10.671 10.656 h 85.325 c 5.906 0 10.672 -4.766 10.672 -10.656 V 10.671 C 271.987 4.78 267.221 0 261.315 0 z" stroke-linecap="round"/>
</g>
		<g transform="matrix(1.5626 0 0 1.5626 -58.3348 58.345)" id="SVGRepo_iconCarrier">
<path style="stroke: none; stroke-width: 1; stroke-dasharray: none; stroke-linecap: butt; stroke-dashoffset: 0; stroke-linejoin: miter; stroke-miterlimit: 4; is-custom-font: none; font-file-url: none; fill: rgb(216,219,0); fill-rule: nonzero; opacity: 1;" transform=" translate(-218.653, -293.324)" d="M 378.654 74.668 H 58.667 c -5.891 0 -10.671 4.766 -10.671 10.656 v 42.67 c 0 1.656 0.391 3.281 1.125 4.766 l 41.545 83.075 v 178.821 c 0 1.172 0.125 29.046 11.421 57.295 c 15.718 39.265 44.952 60.029 84.575 60.029 h 191.992 c 5.891 0 10.656 -4.781 10.656 -10.672 V 85.324 C 389.31 79.434 384.545 74.668 378.654 74.668 z" stroke-linecap="round"/>
</g>
		<g transform="matrix(1.5626 0 0 1.5626 191.6578 300.0001)" id="SVGRepo_iconCarrier">
<path style="stroke: none; stroke-width: 1; stroke-dasharray: none; stroke-linecap: butt; stroke-dashoffset: 0; stroke-linejoin: miter; stroke-miterlimit: 4; is-custom-font: none; font-file-url: none; fill: rgb(101,109,120); fill-rule: nonzero; opacity: 1;" transform=" translate(-378.6455, -447.982)" d="M 325.312 447.982 c 0 -29.451 23.89 -53.326 53.342 -53.326 c 29.453 0 53.325 23.875 53.325 53.326 c 0 29.452 -23.872 53.326 -53.325 53.326 C 349.202 501.308 325.312 477.434 325.312 447.982 z" stroke-linecap="round"/>
</g>
		<g transform="matrix(1.5626 0 0 1.5626 191.6708 300.0013)" id="SVGRepo_iconCarrier">
<path style="stroke: none; stroke-width: 1; stroke-dasharray: none; stroke-linecap: butt; stroke-dashoffset: 0; stroke-linejoin: miter; stroke-miterlimit: 4; is-custom-font: none; font-file-url: none; fill: rgb(67,74,84); fill-rule: nonzero; opacity: 1;" transform=" translate(-378.6535, -447.9825)" d="M 378.654 511.98 c -35.295 0 -63.998 -28.702 -63.998 -63.998 c 0 -35.295 28.703 -63.997 63.998 -63.997 c 35.28 0 63.997 28.702 63.997 63.997 C 442.651 483.278 413.934 511.98 378.654 511.98 z M 378.654 405.312 c -23.53 0 -42.67 19.14 -42.67 42.67 s 19.14 42.671 42.67 42.671 c 23.531 0 42.655 -19.141 42.655 -42.671 S 402.185 405.312 378.654 405.312 z" stroke-linecap="round"/>
</g>
		<g transform="matrix(1.5626 0 0 1.5626 -58.3348 -300.0003)" id="SVGRepo_iconCarrier">
<path style="stroke: none; stroke-width: 1; stroke-dasharray: none; stroke-linecap: butt; stroke-dashoffset: 0; stroke-linejoin: miter; stroke-miterlimit: 4; is-custom-font: none; font-file-url: none; fill: rgb(216,219,0); fill-rule: nonzero; opacity: 1;" transform=" translate(-218.653, -63.9965)" d="M 378.654 31.998 H 58.667 c -5.891 0 -10.671 4.781 -10.671 10.671 v 42.655 c 0 5.891 4.781 10.671 10.671 10.671 h 319.987 c 5.891 0 10.656 -4.781 10.656 -10.671 V 42.67 C 389.31 36.779 384.545 31.998 378.654 31.998 z" stroke-linecap="round"/>
</g>
		<g transform="matrix(1.5626 0 0 1.5626 -200.0001 25.0102)" id="SVGRepo_iconCarrier">
<path style="stroke: none; stroke-width: 1; stroke-dasharray: none; stroke-linecap: butt; stroke-dashoffset: 0; stroke-linejoin: miter; stroke-miterlimit: 4; is-custom-font: none; font-file-url: none; fill: rgb(255,255,255); fill-rule: nonzero; opacity: 0.2;" transform=" translate(-127.993, -271.99)" d="M 123.43 451.951 c -11.312 -28.249 -11.437 -56.123 -11.437 -57.295 V 215.835 l -41.53 -83.075 c -0.75 -1.484 -1.141 -3.109 -1.141 -4.766 v -42.67 V 42.67 c 0 -5.891 4.781 -10.671 10.672 -10.671 H 58.667 c -5.891 0 -10.671 4.781 -10.671 10.671 v 42.655 v 42.67 c 0 1.656 0.391 3.281 1.125 4.766 l 41.545 83.075 v 178.821 c 0 1.172 0.125 29.046 11.421 57.295 c 15.718 39.265 44.952 60.029 84.575 60.029 h 21.328 C 168.382 511.98 139.133 491.216 123.43 451.951 z" stroke-linecap="round"/>
</g>
		<g transform="matrix(1.5626 0 0 1.5626 191.6599 299.9978)" id="SVGRepo_iconCarrier">
<path style="stroke: none; stroke-width: 1; stroke-dasharray: none; stroke-linecap: butt; stroke-dashoffset: 0; stroke-linejoin: miter; stroke-miterlimit: 4; is-custom-font: none; font-file-url: none; fill: rgb(170,178,188); fill-rule: nonzero; opacity: 1;" transform=" translate(-378.648, -447.9816)" d="M 386.201 440.435 c 4.156 4.172 4.156 10.922 0 15.094 c -4.172 4.155 -10.922 4.155 -15.094 0 c -4.172 -4.172 -4.172 -10.922 0 -15.094 C 375.279 436.279 382.029 436.279 386.201 440.435 z" stroke-linecap="round"/>
</g>
</g>
</g>
</svg>