<svg xmlns="http://www.w3.org/2000/svg" xmlns:xlink="http://www.w3.org/1999/xlink" version="1.1" width="1000" height="1000" viewBox="0 0 1000 1000" xml:space="preserve">
<desc>Created with Fabric.js 3.5.0</desc>
<defs>
</defs>
<rect x="0" y="0" width="100%" height="100%" fill="rgba(255,255,255,0)"/>
<g transform="matrix(0.0736 0 0 0.071 500.0146 488.9127)" id="520695">
<g style="" vector-effect="non-scaling-stroke">
		<g transform="matrix(12.5 0 0 12.5 12.5 -112.5)" id="SVGRepo_iconCarrier">
<circle style="stroke: none; stroke-width: 1; stroke-dasharray: none; stroke-linecap: butt; stroke-dashoffset: 0; stroke-linejoin: miter; stroke-miterlimit: 4; is-custom-font: none; font-file-url: none; fill: rgb(237,235,220); fill-rule: nonzero; opacity: 1;" cx="0" cy="0" r="23"/>
</g>
		<g transform="matrix(12.5 0 0 12.5 -312.5 -175)" id="SVGRepo_iconCarrier">
<line style="stroke: rgb(76,36,29); stroke-width: 2; stroke-dasharray: none; stroke-linecap: round; stroke-dashoffset: 0; stroke-linejoin: round; stroke-miterlimit: 4; is-custom-font: none; font-file-url: none; fill: none; fill-rule: nonzero; opacity: 1;" x1="0" y1="-1" x2="0" y2="1"/>
</g>
		<g transform="matrix(12.5 0 0 12.5 -312.5 -100)" id="SVGRepo_iconCarrier">
<line style="stroke: rgb(76,36,29); stroke-width: 2; stroke-dasharray: none; stroke-linecap: round; stroke-dashoffset: 0; stroke-linejoin: round; stroke-miterlimit: 4; is-custom-font: none; font-file-url: none; fill: none; fill-rule: nonzero; opacity: 1;" x1="0" y1="-1" x2="0" y2="1"/>
</g>
		<g transform="matrix(12.5 0 0 12.5 31.25 275)" id="SVGRepo_iconCarrier">
<path style="stroke: rgb(76,36,29); stroke-width: 2; stroke-dasharray: none; stroke-linecap: round; stroke-dashoffset: 0; stroke-linejoin: round; stroke-miterlimit: 4; is-custom-font: none; font-file-url: none; fill: rgb(142,210,153); fill-rule: nonzero; opacity: 1;" transform=" translate(-34.5, -54)" d="M 21.778 47 H 47.222 A 8.778 8.778 0 0 1 56 55.778 V 61 a 0 0 0 0 1 0 0 H 13 a 0 0 0 0 1 0 0 V 55.778 A 8.778 8.778 0 0 1 21.778 47 Z" stroke-linecap="round"/>
</g>
		<g transform="matrix(12.5 0 0 12.5 12.5 287.5)" id="SVGRepo_iconCarrier">
<polygon style="stroke: rgb(76,36,29); stroke-width: 2; stroke-dasharray: none; stroke-linecap: round; stroke-dashoffset: 0; stroke-linejoin: round; stroke-miterlimit: 4; is-custom-font: none; font-file-url: none; fill: rgb(255,255,255); fill-rule: nonzero; opacity: 1;" points="-1,6 -5,6 1,-6 5,-6 -1,6 "/>
</g>
		<g transform="matrix(12.5 0 0 12.5 37.5 187.5)" id="SVGRepo_iconCarrier">
<path style="stroke: rgb(76,36,29); stroke-width: 2; stroke-dasharray: none; stroke-linecap: round; stroke-dashoffset: 0; stroke-linejoin: round; stroke-miterlimit: 4; is-custom-font: none; font-file-url: none; fill: rgb(142,210,153); fill-rule: nonzero; opacity: 1;" transform=" translate(-35, -47)" d="M 59 39 H 11 v 4.236 A 5.763 5.763 0 0 0 16.764 49 L 34 55 l 19.236 -6 A 5.763 5.763 0 0 0 59 43.236 Z" stroke-linecap="round"/>
</g>
		<g transform="matrix(12.5 0 0 12.5 -350 -137.5)" id="SVGRepo_iconCarrier">
<line style="stroke: rgb(76,36,29); stroke-width: 2; stroke-dasharray: none; stroke-linecap: round; stroke-dashoffset: 0; stroke-linejoin: round; stroke-miterlimit: 4; is-custom-font: none; font-file-url: none; fill: none; fill-rule: nonzero; opacity: 1;" x1="-1" y1="0" x2="1" y2="0"/>
</g>
		<g transform="matrix(12.5 0 0 12.5 -275 -137.5)" id="SVGRepo_iconCarrier">
<line style="stroke: rgb(76,36,29); stroke-width: 2; stroke-dasharray: none; stroke-linecap: round; stroke-dashoffset: 0; stroke-linejoin: round; stroke-miterlimit: 4; is-custom-font: none; font-file-url: none; fill: none; fill-rule: nonzero; opacity: 1;" x1="-1" y1="0" x2="1" y2="0"/>
</g>
		<g transform="matrix(12.5 0 0 12.5 293.75 -318.75)" id="SVGRepo_iconCarrier">
<circle style="stroke: rgb(76,36,29); stroke-width: 2; stroke-dasharray: none; stroke-linecap: round; stroke-dashoffset: 0; stroke-linejoin: round; stroke-miterlimit: 4; is-custom-font: none; font-file-url: none; fill: none; fill-rule: nonzero; opacity: 1;" cx="0" cy="0" r="2.5"/>
</g>
		<g transform="matrix(12.5 0 0 12.5 -225.2 -317.4625)" id="SVGRepo_iconCarrier">
<circle style="stroke: none; stroke-width: 1; stroke-dasharray: none; stroke-linecap: butt; stroke-dashoffset: 0; stroke-linejoin: miter; stroke-miterlimit: 4; is-custom-font: none; font-file-url: none; fill: rgb(76,36,29); fill-rule: nonzero; opacity: 1;" cx="0" cy="0" r="1.069"/>
</g>
		<g transform="matrix(12.5 0 0 12.5 37.5 87.5)" id="SVGRepo_iconCarrier">
<ellipse style="stroke: rgb(76,36,29); stroke-width: 2; stroke-dasharray: none; stroke-linecap: round; stroke-dashoffset: 0; stroke-linejoin: round; stroke-miterlimit: 4; is-custom-font: none; font-file-url: none; fill: rgb(107,79,91); fill-rule: nonzero; opacity: 1;" cx="0" cy="0" rx="24" ry="6"/>
</g>
		<g transform="matrix(12.5 0 0 12.5 -325.2 -17.4625)" id="SVGRepo_iconCarrier">
<circle style="stroke: none; stroke-width: 1; stroke-dasharray: none; stroke-linecap: butt; stroke-dashoffset: 0; stroke-linejoin: miter; stroke-miterlimit: 4; is-custom-font: none; font-file-url: none; fill: rgb(76,36,29); fill-rule: nonzero; opacity: 1;" cx="0" cy="0" r="1.069"/>
</g>
		<g transform="matrix(12.5 0 0 12.5 31.25 -293.75)" id="SVGRepo_iconCarrier">
<path style="stroke: rgb(76,36,29); stroke-width: 2; stroke-dasharray: none; stroke-linecap: round; stroke-dashoffset: 0; stroke-linejoin: round; stroke-miterlimit: 4; is-custom-font: none; font-file-url: none; fill: rgb(142,210,153); fill-rule: nonzero; opacity: 1;" transform=" translate(-34.5, -8.5)" d="M 48 13 V 10.143 A 6.143 6.143 0 0 0 41.857 4 H 27.143 A 6.143 6.143 0 0 0 21 10.143 V 13" stroke-linecap="round"/>
</g>
		<g transform="matrix(12.5 0 0 12.5 31.25 -88.6875)" id="SVGRepo_iconCarrier">
<rect style="stroke: rgb(76,36,29); stroke-width: 2; stroke-dasharray: none; stroke-linecap: round; stroke-dashoffset: 0; stroke-linejoin: round; stroke-miterlimit: 4; is-custom-font: none; font-file-url: none; fill: rgb(255,232,220); fill-rule: nonzero; opacity: 1;" x="-14.5" y="-7.095" rx="0" ry="0" width="29" height="14.19"/>
</g>
		<g transform="matrix(12.5 0 0 12.5 31.25 -187.5)" id="SVGRepo_iconCarrier">
<path style="stroke: rgb(76,36,29); stroke-width: 2; stroke-dasharray: none; stroke-linecap: round; stroke-dashoffset: 0; stroke-linejoin: round; stroke-miterlimit: 4; is-custom-font: none; font-file-url: none; fill: rgb(255,255,255); fill-rule: nonzero; opacity: 1;" transform=" translate(-34.5, -17)" d="M 41.972 13 H 48 a 4 4 0 0 1 4 4 h 0 a 4 4 0 0 1 -4 4 H 21 a 4 4 0 0 1 -4 -4 h 0 a 4 4 0 0 1 4 -4 H 37" stroke-linecap="round"/>
</g>
		<g transform="matrix(12.5 0 0 12.5 93.75 -81.25)" id="SVGRepo_iconCarrier">
<circle style="stroke: none; stroke-width: 1; stroke-dasharray: none; stroke-linecap: butt; stroke-dashoffset: 0; stroke-linejoin: miter; stroke-miterlimit: 4; is-custom-font: none; font-file-url: none; fill: rgb(76,36,29); fill-rule: nonzero; opacity: 1;" cx="0" cy="0" r="1.136"/>
</g>
		<g transform="matrix(12.5 0 0 12.5 -31.25 -81.25)" id="SVGRepo_iconCarrier">
<circle style="stroke: none; stroke-width: 1; stroke-dasharray: none; stroke-linecap: butt; stroke-dashoffset: 0; stroke-linejoin: miter; stroke-miterlimit: 4; is-custom-font: none; font-file-url: none; fill: rgb(76,36,29); fill-rule: nonzero; opacity: 1;" cx="0" cy="0" r="1.136"/>
</g>
		<g transform="matrix(12.5 0 0 12.5 31.25 104.941)" id="SVGRepo_iconCarrier">
<path style="stroke: rgb(76,36,29); stroke-width: 2; stroke-dasharray: none; stroke-linecap: round; stroke-dashoffset: 0; stroke-linejoin: round; stroke-miterlimit: 4; is-custom-font: none; font-file-url: none; fill: rgb(255,255,255); fill-rule: nonzero; opacity: 1;" transform=" translate(-34.5, -40.3953)" d="M 43.875 32 a 6.472 6.472 0 0 0 -5.219 -2.2 A 5.2 5.2 0 0 0 35 31.974 A 5.2 5.2 0 0 0 31.344 29.8 A 6.472 6.472 0 0 0 26.125 32 H 20 v 4.5 a 14.5 14.5 0 0 0 29 0 V 32 Z" stroke-linecap="round"/>
</g>
		<g transform="matrix(12.5 0 0 12.5 37.5 50)" id="SVGRepo_iconCarrier">
<line style="stroke: rgb(76,36,29); stroke-width: 2; stroke-dasharray: none; stroke-linecap: round; stroke-dashoffset: 0; stroke-linejoin: round; stroke-miterlimit: 4; is-custom-font: none; font-file-url: none; fill: none; fill-rule: nonzero; opacity: 1;" x1="-2" y1="0" x2="2" y2="0"/>
</g>
		<g transform="matrix(8.8388 -8.8388 8.8388 8.8388 31.2502 -243.7544)" id="SVGRepo_iconCarrier">
<rect style="stroke: rgb(76,36,29); stroke-width: 2; stroke-dasharray: none; stroke-linecap: round; stroke-dashoffset: 0; stroke-linejoin: round; stroke-miterlimit: 4; is-custom-font: none; font-file-url: none; fill: rgb(189,83,181); fill-rule: nonzero; opacity: 1;" x="-2.5" y="-2.5" rx="0" ry="0" width="5" height="5"/>
</g>
</g>
</g>
</svg>