<?xml version="1.0" encoding="UTF-8"?>
<svg xmlns="http://www.w3.org/2000/svg" xmlns:xlink="http://www.w3.org/1999/xlink" width="40px" height="40px" viewBox="0 0 40 40" version="1.1">
<g id="surface1">
<path style=" stroke:none;fill-rule:nonzero;fill:rgb(92.941176%,92.156863%,86.27451%);fill-opacity:1;" d="M 35 14.375 C 35 22.3125 28.5625 28.75 20.625 28.75 C 12.6875 28.75 6.25 22.3125 6.25 14.375 C 6.25 6.4375 12.6875 0 20.625 0 C 28.5625 0 35 6.4375 35 14.375 Z M 35 14.375 "/>
<path style="fill:none;stroke-width:2;stroke-linecap:round;stroke-linejoin:round;stroke:rgb(29.803922%,14.117647%,11.372549%);stroke-opacity:1;stroke-miterlimit:4;" d="M 7 17 L 7 19 " transform="matrix(0.625,0,0,0.625,0,0)"/>
<path style="fill:none;stroke-width:2;stroke-linecap:round;stroke-linejoin:round;stroke:rgb(29.803922%,14.117647%,11.372549%);stroke-opacity:1;stroke-miterlimit:4;" d="M 7 23 L 7 25 " transform="matrix(0.625,0,0,0.625,0,0)"/>
<path style="fill-rule:nonzero;fill:rgb(55.686275%,82.352941%,60%);fill-opacity:1;stroke-width:2;stroke-linecap:round;stroke-linejoin:round;stroke:rgb(29.803922%,14.117647%,11.372549%);stroke-opacity:1;stroke-miterlimit:4;" d="M 21.775 47 L 47.225 47 C 52.06875 47 56 50.93125 56 55.775 L 56 61 L 13 61 L 13 55.775 C 13 50.93125 16.93125 47 21.775 47 Z M 21.775 47 " transform="matrix(0.625,0,0,0.625,0,0)"/>
<path style="fill-rule:nonzero;fill:rgb(100%,100%,100%);fill-opacity:1;stroke-width:2;stroke-linecap:round;stroke-linejoin:round;stroke:rgb(29.803922%,14.117647%,11.372549%);stroke-opacity:1;stroke-miterlimit:4;" d="M 32 61 L 28 61 L 34 49 L 38 49 Z M 32 61 " transform="matrix(0.625,0,0,0.625,0,0)"/>
<path style="fill-rule:nonzero;fill:rgb(55.686275%,82.352941%,60%);fill-opacity:1;stroke-width:2;stroke-linecap:round;stroke-linejoin:round;stroke:rgb(29.803922%,14.117647%,11.372549%);stroke-opacity:1;stroke-miterlimit:4;" d="M 59 39 L 11 39 L 11 43.2375 C 11 46.41875 13.58125 49 16.7625 49 L 34 55 L 53.2375 49 C 56.41875 49 59 46.41875 59 43.2375 Z M 59 39 " transform="matrix(0.625,0,0,0.625,0,0)"/>
<path style="fill:none;stroke-width:2;stroke-linecap:round;stroke-linejoin:round;stroke:rgb(29.803922%,14.117647%,11.372549%);stroke-opacity:1;stroke-miterlimit:4;" d="M 3 21 L 5 21 " transform="matrix(0.625,0,0,0.625,0,0)"/>
<path style="fill:none;stroke-width:2;stroke-linecap:round;stroke-linejoin:round;stroke:rgb(29.803922%,14.117647%,11.372549%);stroke-opacity:1;stroke-miterlimit:4;" d="M 9 21 L 11 21 " transform="matrix(0.625,0,0,0.625,0,0)"/>
<path style="fill:none;stroke-width:2;stroke-linecap:round;stroke-linejoin:round;stroke:rgb(29.803922%,14.117647%,11.372549%);stroke-opacity:1;stroke-miterlimit:4;" d="M 58 6.5 C 58 7.88125 56.88125 9 55.5 9 C 54.11875 9 53 7.88125 53 6.5 C 53 5.11875 54.11875 4 55.5 4 C 56.88125 4 58 5.11875 58 6.5 Z M 58 6.5 " transform="matrix(0.625,0,0,0.625,0,0)"/>
<path style=" stroke:none;fill-rule:nonzero;fill:rgb(29.803922%,14.117647%,11.372549%);fill-opacity:1;" d="M 9.40625 4.125 C 9.40625 4.496094 9.109375 4.796875 8.738281 4.796875 C 8.371094 4.796875 8.070312 4.496094 8.070312 4.125 C 8.070312 3.757812 8.371094 3.457031 8.738281 3.457031 C 9.109375 3.457031 9.40625 3.757812 9.40625 4.125 Z M 9.40625 4.125 "/>
<path style="fill-rule:nonzero;fill:rgb(41.960784%,30.980392%,35.686275%);fill-opacity:1;stroke-width:2;stroke-linecap:round;stroke-linejoin:round;stroke:rgb(29.803922%,14.117647%,11.372549%);stroke-opacity:1;stroke-miterlimit:4;" d="M 59 39 C 59 35.6875 48.25625 33 35 33 C 21.74375 33 11 35.6875 11 39 C 11 42.3125 21.74375 45 35 45 C 48.25625 45 59 42.3125 59 39 Z M 59 39 " transform="matrix(0.625,0,0,0.625,0,0)"/>
<path style=" stroke:none;fill-rule:nonzero;fill:rgb(29.803922%,14.117647%,11.372549%);fill-opacity:1;" d="M 4.40625 19.125 C 4.40625 19.496094 4.109375 19.796875 3.738281 19.796875 C 3.371094 19.796875 3.070312 19.496094 3.070312 19.125 C 3.070312 18.757812 3.371094 18.457031 3.738281 18.457031 C 4.109375 18.457031 4.40625 18.757812 4.40625 19.125 Z M 4.40625 19.125 "/>
<path style="fill-rule:nonzero;fill:rgb(55.686275%,82.352941%,60%);fill-opacity:1;stroke-width:2;stroke-linecap:round;stroke-linejoin:round;stroke:rgb(29.803922%,14.117647%,11.372549%);stroke-opacity:1;stroke-miterlimit:4;" d="M 48 13 L 48 10.14375 C 48 6.75 45.25 4 41.85625 4 L 27.14375 4 C 23.75 4 21 6.75 21 10.14375 L 21 13 " transform="matrix(0.625,0,0,0.625,0,0)"/>
<path style="fill-rule:nonzero;fill:rgb(100%,90.980392%,86.27451%);fill-opacity:1;stroke-width:2;stroke-linecap:round;stroke-linejoin:round;stroke:rgb(29.803922%,14.117647%,11.372549%);stroke-opacity:1;stroke-miterlimit:4;" d="M 20 17.8125 L 49 17.8125 L 49 32 L 20 32 Z M 20 17.8125 " transform="matrix(0.625,0,0,0.625,0,0)"/>
<path style="fill-rule:nonzero;fill:rgb(100%,100%,100%);fill-opacity:1;stroke-width:2;stroke-linecap:round;stroke-linejoin:round;stroke:rgb(29.803922%,14.117647%,11.372549%);stroke-opacity:1;stroke-miterlimit:4;" d="M 41.975 13 L 48 13 C 50.20625 13 52 14.79375 52 17 C 52 19.20625 50.20625 21 48 21 L 21 21 C 18.79375 21 17 19.20625 17 17 C 17 14.79375 18.79375 13 21 13 L 37 13 " transform="matrix(0.625,0,0,0.625,0,0)"/>
<path style=" stroke:none;fill-rule:nonzero;fill:rgb(29.803922%,14.117647%,11.372549%);fill-opacity:1;" d="M 25.398438 15.9375 C 25.398438 16.328125 25.078125 16.648438 24.6875 16.648438 C 24.296875 16.648438 23.976562 16.328125 23.976562 15.9375 C 23.976562 15.546875 24.296875 15.226562 24.6875 15.226562 C 25.078125 15.226562 25.398438 15.546875 25.398438 15.9375 Z M 25.398438 15.9375 "/>
<path style=" stroke:none;fill-rule:nonzero;fill:rgb(29.803922%,14.117647%,11.372549%);fill-opacity:1;" d="M 19.148438 15.9375 C 19.148438 16.328125 18.828125 16.648438 18.4375 16.648438 C 18.046875 16.648438 17.726562 16.328125 17.726562 15.9375 C 17.726562 15.546875 18.046875 15.226562 18.4375 15.226562 C 18.828125 15.226562 19.148438 15.546875 19.148438 15.9375 Z M 19.148438 15.9375 "/>
<path style="fill-rule:nonzero;fill:rgb(100%,100%,100%);fill-opacity:1;stroke-width:2;stroke-linecap:round;stroke-linejoin:round;stroke:rgb(29.803922%,14.117647%,11.372549%);stroke-opacity:1;stroke-miterlimit:4;" d="M 43.875 32 C 42.5625 30.50625 40.64375 29.69375 38.65625 29.8 C 37.18125 29.96875 35.85 30.7625 35 31.975 C 34.15 30.7625 32.81875 29.96875 31.34375 29.8 C 29.35625 29.69375 27.4375 30.50625 26.125 32 L 20 32 L 20 36.5 C 20 44.50625 26.49375 51 34.5 51 C 42.50625 51 49 44.50625 49 36.5 L 49 32 Z M 43.875 32 " transform="matrix(0.625,0,0,0.625,0,0)"/>
<path style="fill:none;stroke-width:2;stroke-linecap:round;stroke-linejoin:round;stroke:rgb(29.803922%,14.117647%,11.372549%);stroke-opacity:1;stroke-miterlimit:4;" d="M 33 36 L 37 36 " transform="matrix(0.625,0,0,0.625,0,0)"/>
<path style="fill-rule:nonzero;fill:rgb(74.117647%,32.54902%,70.980392%);fill-opacity:1;stroke-width:2;stroke-linecap:round;stroke-linejoin:round;stroke:rgb(29.803922%,14.117647%,11.372549%);stroke-opacity:1;stroke-miterlimit:4;" d="M 31.99835 9.998843 L 37.00113 9.998843 L 37.00113 15.001624 L 31.99835 15.001624 Z M 31.99835 9.998843 " transform="matrix(0.441942,-0.441942,0.441942,0.441942,0.79125,17.535)"/>
</g>
</svg>
